<?xml version="1.0" standalone="no"?><!DOCTYPE svg PUBLIC "-//W3C//DTD SVG 1.1//EN" "http://www.w3.org/Graphics/SVG/1.1/DTD/svg11.dtd"><svg t="1650200257492" class="icon" viewBox="0 0 1024 1024" version="1.1" xmlns="http://www.w3.org/2000/svg" p-id="2542" xmlns:xlink="http://www.w3.org/1999/xlink" width="200" height="200"><defs><style type="text/css">@font-face { font-family: feedback-iconfont; src: url("//at.alicdn.com/t/font_1031158_u69w8yhxdu.woff2?t=1630033759944") format("woff2"), url("//at.alicdn.com/t/font_1031158_u69w8yhxdu.woff?t=1630033759944") format("woff"), url("//at.alicdn.com/t/font_1031158_u69w8yhxdu.ttf?t=1630033759944") format("truetype"); }
</style></defs><path d="M384 512c0-70.688 57.312-128 128-128s128 57.312 128 128c0 70.688-57.312 128-128 128s-128-57.312-128-128zM664.352 230.528c99.84 54.144 167.648 159.904 167.648 281.472s-67.808 227.328-167.648 281.472c44.064-70.112 71.648-170.272 71.648-281.472s-27.584-211.36-71.648-281.472zM288 512c0 111.2 27.584 211.36 71.648 281.472-99.84-54.144-167.648-159.904-167.648-281.472s67.808-227.328 167.648-281.472c-44.064 70.112-71.648 170.272-71.648 281.472zM96 512c0 171.904 54.4 326.176 140.64 431.712-142.304-90.944-236.64-250.304-236.64-431.712s94.336-340.768 236.64-431.712c-86.24 105.536-140.64 259.808-140.64 431.712zM787.36 80.288c142.304 90.944 236.64 250.304 236.64 431.712s-94.336 340.768-236.64 431.712c86.24-105.536 140.64-259.808 140.64-431.712s-54.4-326.176-140.64-431.712z" p-id="2543"></path></svg>