<?xml version="1.0" standalone="no"?><!DOCTYPE svg PUBLIC "-//W3C//DTD SVG 1.1//EN" "http://www.w3.org/Graphics/SVG/1.1/DTD/svg11.dtd"><svg t="1650384386674" class="icon" viewBox="0 0 1024 1024" version="1.1" xmlns="http://www.w3.org/2000/svg" p-id="2541" xmlns:xlink="http://www.w3.org/1999/xlink" width="200" height="200"><defs><style type="text/css">@font-face { font-family: feedback-iconfont; src: url("//at.alicdn.com/t/font_1031158_u69w8yhxdu.woff2?t=1630033759944") format("woff2"), url("//at.alicdn.com/t/font_1031158_u69w8yhxdu.woff?t=1630033759944") format("woff"), url("//at.alicdn.com/t/font_1031158_u69w8yhxdu.ttf?t=1630033759944") format("truetype"); }
</style></defs><path d="M224 608c-52.928 0-96-43.072-96-96s43.072-96 96-96c52.928 0 96 43.072 96 96S276.928 608 224 608z" p-id="2542" fill="#000000"></path><path d="M512 608c-52.928 0-96-43.072-96-96s43.072-96 96-96c52.928 0 96 43.072 96 96S564.928 608 512 608z" p-id="2543" fill="#000000"></path><path d="M800 608c-52.928 0-96-43.072-96-96s43.072-96 96-96c52.928 0 96 43.072 96 96S852.928 608 800 608z" p-id="2544" fill="#000000"></path></svg>