<?xml version="1.0" standalone="no"?><!DOCTYPE svg PUBLIC "-//W3C//DTD SVG 1.1//EN" "http://www.w3.org/Graphics/SVG/1.1/DTD/svg11.dtd"><svg t="1650197880622" class="icon" viewBox="0 0 1024 1024" version="1.1" xmlns="http://www.w3.org/2000/svg" p-id="4622" xmlns:xlink="http://www.w3.org/1999/xlink" width="200" height="200"><defs><style type="text/css">@font-face { font-family: feedback-iconfont; src: url("//at.alicdn.com/t/font_1031158_u69w8yhxdu.woff2?t=1630033759944") format("woff2"), url("//at.alicdn.com/t/font_1031158_u69w8yhxdu.woff?t=1630033759944") format("woff"), url("//at.alicdn.com/t/font_1031158_u69w8yhxdu.ttf?t=1630033759944") format("truetype"); }
</style></defs><path d="M512 149.333A170.667 170.667 0 1 1 341.333 320 170.667 170.667 0 0 1 512 149.333m0-64A234.667 234.667 0 1 0 746.667 320 234.667 234.667 0 0 0 512 85.333z m0 597.334A448 448 0 0 1 853.333 839.68a19.84 19.84 0 0 1 2.987 21.333 21.333 21.333 0 0 1-19.627 12.587H188.16a21.333 21.333 0 0 1-19.627-12.587 19.84 19.84 0 0 1 2.987-21.333A448 448 0 0 1 512 682.667m0-64A510.507 510.507 0 0 0 122.88 798.08a85.333 85.333 0 0 0 65.28 140.587h647.68a85.333 85.333 0 0 0 65.28-140.587A510.507 510.507 0 0 0 512 618.667z" p-id="4623"></path></svg>